# xmcd
#
# Track frame offsets:
#	150
#	14604
#	33072
#	49734
#	63888
#	78269
#	95662
#	113395
#	130996
#	152034
#	166808
#	192383
#	207700
#	222043
#	257394
#
# Disc length: 3654 seconds
#
# Revision: 1
# Processed by: cddbd v1.4PL0 Copyright (c) Steve Scherf et al.
# Submitted via: CDmax 1.9
#
DISCID=c10e440f
DTITLE=backporch tunes - more selected acoustics
DYEAR=2001
DGENRE=Blues
TTITLE0=your bisquits are big enough for me
TTITLE1=banjo man
TTITLE2=no matter how she done it
TTITLE3=perpetual blues machine
TTITLE4=hesitation blues
TTITLE5=what i love
TTITLE6=friend of mine
TTITLE7=sittin' on top of the world
TTITLE8=a few of our lines
TTITLE9=busy bootin'
TTITLE10=guitar rag
TTITLE11=cigarette blues
TTITLE12=banker's blues
TTITLE13=st. james infirmary
TTITLE14=statesboro blues
EXTD=
EXTT0=
EXTT1=
EXTT2=
EXTT3=
EXTT4=
EXTT5=
EXTT6=
EXTT7=
EXTT8=
EXTT9=
EXTT10=
EXTT11=
EXTT12=
EXTT13=
EXTT14=
PLAYORDER=
